<?xml version="1.0" encoding="UTF-8"?>
<svg id="a" data-name="Livello 1" xmlns="http://www.w3.org/2000/svg" xmlns:xlink="http://www.w3.org/1999/xlink" viewBox="0 0 255.84 105.06">
  <defs>
    <style>
      .c {
        fill: url(#b);
      }

      .d {
        fill: #303334;
      }
    </style>
    <linearGradient id="b" data-name="Sfumatura senza nome" x1="72.92" y1="7.39" x2="255.84" y2="7.39" gradientTransform="translate(0 105.07) scale(1 -1)" gradientUnits="userSpaceOnUse">
      <stop offset="0" stop-color="#00938b"/>
      <stop offset="1" stop-color="#5093ad"/>
    </linearGradient>
  </defs>
  <path class="d" d="m31.85,65.93c-5.12,0-9.15,1.55-12.08,4.65-2.93,3.1-4.4,7.92-4.4,14.46v20.02H0v-54.2h15.37v10.92c1.55-3.71,3.67-6.67,6.37-8.9,2.7-2.23,6.34-3.24,10.92-3.03v16.08h-.81Z"/>
  <path class="d" d="m42.97,105.06v-54.2h15.37v54.2h-15.37Z"/>
  <path class="c" d="m72.92,105.06v-14.76h182.92v14.76H72.92Z"/>
  <path class="d" d="m107.2,73.82v-30.16c0-3.63-.81-6.37-2.43-8.22s-3.91-2.77-6.87-2.77-5.31.93-7.03,2.77c-1.72,1.85-2.58,4.59-2.58,8.22v30.16h-15.37V0h15.37v27.36c.87-1.15,1.83-2.26,2.88-3.31,1.04-1.05,2.21-1.98,3.49-2.8s2.7-1.46,4.25-1.94,3.3-.71,5.26-.71c5.87,0,10.4,1.79,13.6,5.36,3.2,3.57,4.8,8.49,4.8,14.76v35.09h-15.37Z"/>
  <path class="d" d="m169.79,73.82v-7.75c-.88,1.15-1.84,2.26-2.88,3.31s-2.21,1.98-3.49,2.8c-1.28.82-2.7,1.46-4.25,1.94-1.55.47-3.3.71-5.26.71-5.87,0-10.4-1.79-13.6-5.36-3.2-3.57-4.8-8.49-4.8-14.76V19.62h15.37v30.16c0,3.63.81,6.37,2.43,8.22s3.91,2.77,6.87,2.77,5.31-.92,7.03-2.77c1.72-1.85,2.58-4.59,2.58-8.22v-30.16h15.37v54.2h-15.37Z"/>
  <path class="d" d="m253.77,58.81c-1.38,3.47-3.2,6.4-5.46,8.8-2.26,2.39-4.87,4.2-7.84,5.41s-6.07,1.82-9.3,1.82c-4.11,0-7.5-.8-10.16-2.41-2.66-1.61-4.91-3.48-6.72-5.62v7.01h-15.37V0h15.36v27.34c1.89-2.54,4.16-4.63,6.83-6.27,2.66-1.64,6.02-2.46,10.06-2.46,3.17,0,6.23.61,9.2,1.82,2.97,1.21,5.6,3.02,7.89,5.41s4.13,5.33,5.51,8.8,2.07,7.47,2.07,11.98v.2c0,4.52-.69,8.51-2.07,11.99Zm-13.3-12.19c0-2.24-.36-4.29-1.06-6.16-.71-1.87-1.67-3.46-2.88-4.79-1.21-1.32-2.61-2.34-4.2-3.05-1.58-.71-3.29-1.07-5.11-1.07s-3.52.36-5.11,1.07c-1.59.71-2.97,1.73-4.15,3.05-1.18,1.33-2.13,2.92-2.83,4.79-.71,1.86-1.06,3.92-1.06,6.16v.2c0,2.24.36,4.3,1.06,6.16.71,1.86,1.65,3.46,2.83,4.78s2.56,2.34,4.15,3.05c1.58.71,3.29,1.07,5.11,1.07s3.52-.36,5.11-1.07c1.58-.71,2.98-1.73,4.2-3.05,1.21-1.32,2.17-2.9,2.88-4.73.71-1.83,1.06-3.9,1.06-6.21v-.2Z"/>
</svg>