<?xml version="1.0" encoding="utf-8"?>
<!-- Generator: $$$/GeneralStr/196=Adobe Illustrator 27.6.0, SVG Export Plug-In . SVG Version: 6.00 Build 0)  -->
<svg version="1.1" id="Livello_1" xmlns="http://www.w3.org/2000/svg" xmlns:xlink="http://www.w3.org/1999/xlink" x="0px" y="0px"
	 viewBox="0 0 595.28 841.89" style="enable-background:new 0 0 595.28 841.89;" xml:space="preserve">
<style type="text/css">
	.st0{fill:#303334;}
	.st1{fill:url(#SVGID_1_);}
</style>
<path class="st0" d="M201.57,434.34c-5.12,0-9.15,1.55-12.08,4.65c-2.93,3.1-4.4,7.92-4.4,14.46v20.02h-15.37v-54.2h15.37v10.92
	c1.55-3.71,3.67-6.67,6.37-8.9c2.7-2.23,6.34-3.24,10.92-3.03v16.08H201.57z"/>
<path class="st0" d="M212.69,473.47v-54.2h15.37v54.2H212.69z"/>
<linearGradient id="SVGID_1_" gradientUnits="userSpaceOnUse" x1="242.6419" y1="466.0931" x2="425.5611" y2="466.0931">
	<stop  offset="0" style="stop-color:#00938B"/>
	<stop  offset="1" style="stop-color:#5093AD"/>
</linearGradient>
<path class="st1" d="M242.64,473.47v-14.76h182.92v14.76H242.64z"/>
<path class="st0" d="M276.92,442.23v-30.16c0-3.63-0.81-6.37-2.43-8.22c-1.62-1.85-3.91-2.77-6.87-2.77c-2.97,0-5.31,0.93-7.03,2.77
	c-1.72,1.85-2.58,4.59-2.58,8.22v30.16h-15.37v-73.82h15.37v27.36c0.87-1.15,1.83-2.26,2.88-3.31c1.04-1.05,2.21-1.98,3.49-2.8
	s2.7-1.46,4.25-1.94c1.55-0.48,3.3-0.71,5.26-0.71c5.87,0,10.4,1.79,13.6,5.36c3.2,3.57,4.8,8.49,4.8,14.76v35.09H276.92z"/>
<path class="st0" d="M339.51,442.23v-7.75c-0.88,1.15-1.84,2.26-2.88,3.31c-1.04,1.05-2.21,1.98-3.49,2.8
	c-1.28,0.82-2.7,1.46-4.25,1.94c-1.55,0.47-3.3,0.71-5.26,0.71c-5.87,0-10.4-1.79-13.6-5.36c-3.2-3.57-4.8-8.49-4.8-14.76v-35.09
	h15.37v30.16c0,3.63,0.81,6.37,2.43,8.22c1.62,1.85,3.91,2.77,6.87,2.77s5.31-0.92,7.03-2.77c1.72-1.85,2.58-4.59,2.58-8.22v-30.16
	h15.37v54.2H339.51z"/>
<path class="st0" d="M423.49,427.22c-1.38,3.47-3.2,6.4-5.46,8.8c-2.26,2.39-4.87,4.2-7.84,5.41c-2.97,1.21-6.07,1.82-9.3,1.82
	c-4.11,0-7.5-0.8-10.16-2.41c-2.66-1.61-4.91-3.48-6.72-5.62v7.01h-15.37v-73.82H384v27.34c1.89-2.54,4.16-4.63,6.83-6.27
	c2.66-1.64,6.02-2.46,10.06-2.46c3.17,0,6.23,0.61,9.2,1.82c2.97,1.21,5.6,3.02,7.89,5.41c2.29,2.39,4.13,5.33,5.51,8.8
	c1.38,3.47,2.07,7.47,2.07,11.98v0.2C425.56,419.75,424.87,423.74,423.49,427.22z M410.19,415.03c0-2.24-0.36-4.29-1.06-6.16
	c-0.71-1.87-1.67-3.46-2.88-4.79c-1.21-1.32-2.61-2.34-4.2-3.05c-1.58-0.71-3.29-1.07-5.11-1.07c-1.82,0-3.52,0.36-5.11,1.07
	c-1.59,0.71-2.97,1.73-4.15,3.05c-1.18,1.33-2.13,2.92-2.83,4.79c-0.71,1.86-1.06,3.92-1.06,6.16v0.2c0,2.24,0.36,4.3,1.06,6.16
	c0.71,1.86,1.65,3.46,2.83,4.78c1.18,1.32,2.56,2.34,4.15,3.05c1.58,0.71,3.29,1.07,5.11,1.07c1.82,0,3.52-0.36,5.11-1.07
	c1.58-0.71,2.98-1.73,4.2-3.05c1.21-1.32,2.17-2.9,2.88-4.73c0.71-1.83,1.06-3.9,1.06-6.21V415.03z"/>
</svg>
